# xmcd
#
# Track frame offsets:
# 150
# 18745
# 31812
# 51580
# 63462
# 76277
# 95928
# 108916
# 121475
# 135079
# 147385
# 159455
# 175051
# 189335
# 202110
# 213157
# 232499
# 248026
#
# Disc length: 3497 seconds
#
#
# Revision: 3
# Processed by: cddbd v1.5.2PL0 Copyright (c) Steve Scherf et al.
# Submitted via: FreeRIP 2.945 
#
DISCID=060da712
DTITLE=Elis Regina - Elis, o mito
DYEAR=1900
DGENRE=
TTITLE0=Romaria
TTITLE1=Águas de Março
TTITLE2=Como nossos pais
TTITLE3=Madalena
TTITLE4=Atrás da porta
TTITLE5=Dois pra lá, dois pra cá
TTITLE6=Casa no campo
TTITLE7=Arrastão
TTITLE8=Fascinação (Fascination)
TTITLE9=Nada será como antes
TTITLE10=É com esse que vou
TTITLE11=Vou deitar e rolar (Quaquaraquaqua)
TTITLE12=O mestre sala dos mares
TTITLE13=Casa forte
TTITLE14=Upa Neguinho
TTITLE15=Preciso aprender a ser só
TTITLE16=Aquarela do Brasil - Nega do cabelo duro
TTITLE17=Me deixas louca (Me Vuelves Loco)
EXTD=
EXTT0=
EXTT1=
EXTT2=
EXTT3=
EXTT4=
EXTT5=
EXTT6=
EXTT7=
EXTT8=
EXTT9=
EXTT10=
EXTT11=
EXTT12=
EXTT13=
EXTT14=
EXTT15=
EXTT16=
EXTT17=
PLAYORDER=
